<svg viewBox="0 0 32 22" fill="none" xmlns="http://www.w3.org/2000/svg">
  <path fill-rule="evenodd" clip-rule="evenodd"
    d="M18.9462 2.63101C19.0291 2.34225 18.9009 2.03244 18.6384 1.88683C18.3799 1.74341 18.057 1.79734 17.8553 2.02262C17.855 2.02289 17.8548 2.02315 17.8546 2.02342L9.33081 11.6599C9.33066 11.6601 9.33095 11.6597 9.33081 11.6599C9.15239 11.8632 9.11799 12.1561 9.24068 12.3887C9.3668 12.6278 9.6292 12.7636 9.8873 12.7312L14.9184 12.0991L12.6509 20.046C12.568 20.3347 12.6959 20.6455 12.9584 20.7911C13.2169 20.9345 13.5398 20.8806 13.7415 20.6553C13.7417 20.655 13.742 20.6548 13.7422 20.6545L22.266 11.018C22.2661 11.0178 22.2658 11.0182 22.266 11.018C22.4443 10.8147 22.4788 10.5218 22.3561 10.2892C22.2309 10.0519 21.9737 9.91732 21.71 9.95046L16.679 10.5826L18.9462 2.63101ZM22.694 11.3944L14.1675 21.034C13.7907 21.4562 13.1766 21.564 12.6819 21.2895C12.1871 21.0151 11.9467 20.4332 12.1028 19.8896L14.1336 12.7722L9.95836 13.2967C9.46032 13.3593 8.97122 13.0995 8.73655 12.6546C8.50189 12.2098 8.56998 11.6619 8.90281 11.2835L17.4293 1.64391C17.8061 1.22171 18.4202 1.11396 18.9149 1.38841C19.4096 1.66286 19.6501 2.24467 19.494 2.78832L17.4636 9.90952L21.6389 9.38493C22.1407 9.32189 22.6256 9.57845 22.8602 10.0233C23.0949 10.4681 23.0268 11.016 22.694 11.3944Z"
    fill="white" />
  <path
    d="M22.3788 4.0387H20.9454L28.1714 11.2646C28.2125 11.3057 28.2125 11.3723 28.1714 11.4134L20.9454 18.6394H22.3788C23.4115 18.6394 24.4019 18.2291 25.1321 17.4989L30.399 12.232C30.8922 11.7388 30.8922 10.9392 30.399 10.4461L25.1321 5.17916C24.4019 4.44893 23.4115 4.0387 22.3788 4.0387Z"
    fill="#D1D5DB" />
  <path
    d="M9.27066 4.0387H10.704L3.47806 11.2646C3.43696 11.3057 3.43696 11.3723 3.47806 11.4134L10.704 18.6394H9.27066C8.23796 18.6394 7.24756 18.2291 6.51733 17.4989L1.25043 12.232C0.75726 11.7388 0.757261 10.9392 1.25043 10.4461L6.51733 5.17916C7.24756 4.44893 8.23796 4.0387 9.27066 4.0387Z"
    fill="#D1D5DB" />
</svg>