<svg width="308" height="308" viewBox="0 0 308 308" fill="none" xmlns="http://www.w3.org/2000/svg">
<path d="M66.123 65.4521H60.1149V131.47H66.123C69.7631 131.47 72.343 130.516 73.8981 128.607C75.4177 126.699 76.1953 123.695 76.1953 119.595V77.2208C76.1953 73.4746 75.4531 70.5766 74.0041 68.5268C72.5551 66.477 69.9398 65.4521 66.123 65.4521Z" fill="#1D4BA1"/>
<path d="M124.119 79.3057H123.872L117.51 112.527H130.516L124.119 79.3057Z" fill="#1D4BA1"/>
<path d="M158.753 191.692L152.144 224.666H165.68L159.036 191.692H158.753Z" fill="#1D4BA1"/>
<path d="M262.657 0H0V308H262.657L308 262.657V45.3783L262.657 0Z" fill="#1D4BA1"/>
<path d="M187.663 128.607C189.183 126.699 189.96 123.695 189.96 119.595V77.2208C189.96 73.4746 189.218 70.5766 187.769 68.5268C186.32 66.477 183.705 65.4521 179.888 65.4521H173.88V131.47H179.888C183.528 131.47 186.108 130.516 187.663 128.607Z" fill="#1D4BA1"/>
<path d="M48.9757 132.154H53.5865C54.4947 132.958 52.3988 135.158 52.3988 133.098V79.5496C52.3988 76.8251 54.6693 79.5496 53.5865 80.8071H48.9757V71.8301H76.3608C92.3239 71.8301 99.9736 78.9209 99.9736 97.1894V116.191C99.9736 133.482 92.4288 141.132 76.4657 141.132H48.9757V132.154ZM73.5664 130.618C83.312 130.618 85.757 125.518 85.757 115.563V96.2463C85.757 86.8151 82.4386 82.2742 73.9157 82.2742H66.6154V130.618H73.6014H73.5664Z" fill="white"/>
<path d="M151.041 132.713V105.363C151.041 92.8575 146.046 87.4434 132.179 87.4434C123.551 87.4434 117.892 88.9803 111.465 91.9843V105.502H123.446V101.939C123.446 97.8525 125.333 96.0711 131.306 96.0711C137.279 96.0711 138.501 99.3895 138.501 105.677L124.983 110.427C115.587 113.641 109.055 117.972 109.055 127.508C109.055 137.044 113.91 142.249 123.9 142.249C129.664 142.249 134.624 139.594 138.955 135.926V141.131H154.15V132.713H151.041ZM138.501 126.845C136.196 129.29 132.423 132.154 128.302 132.154C124.669 132.154 122.014 130.058 122.014 126.39C122.014 121.954 125.333 119.963 133.192 116.855L138.501 114.864V126.845Z" fill="white"/>
<path d="M178.077 227.364V200.014C178.077 187.509 173.117 182.06 159.25 182.06C150.622 182.06 144.963 183.631 138.536 186.6V200.118H150.517V196.591C150.517 192.504 152.403 190.722 158.377 190.722C164.35 190.722 165.572 194.041 165.572 200.328L152.054 205.079C142.623 208.292 136.091 212.623 136.091 222.159C136.091 231.695 140.981 236.9 150.936 236.9C156.7 236.9 161.695 234.21 166.026 230.578V235.782H181.186V227.364H178.077ZM165.572 221.496C163.232 223.906 159.494 226.805 155.372 226.805C151.705 226.805 149.05 224.709 149.05 221.042C149.05 216.606 152.403 214.614 160.263 211.506L165.572 209.515V221.496Z" fill="white"/>
<path d="M206.126 132.713V71.8301H188.416V80.2483H193.586V91.1814C189.534 89.2602 187.718 88.5616 182.164 88.5616C170.532 88.5616 162.114 96.2812 162.114 110.707V118.252C162.114 132.154 167.877 141.9 179.963 141.9C184.958 141.9 189.289 140.258 193.935 136.905V141.132H209.339V132.713H206.126ZM193.586 128.487C190.721 130.932 187.822 132.154 184.504 132.154C178.985 132.154 174.863 127.928 174.863 115.772V113.781C174.863 104.42 177.169 98.3072 185.936 98.3072C188.591 98.3072 191.071 98.7962 193.586 100.158V128.487Z" fill="white"/>
<path d="M235.049 118.218C224.081 115.423 217.863 111.86 217.863 103.128C217.863 92.7884 225.059 87.4092 237.913 87.4092C244.899 87.4092 252.199 88.9112 257.09 91.3912V104.211H245.109V100.997C245.109 97.7485 242.768 95.9321 237.913 95.9321C232.604 95.9321 230.159 98.482 230.159 101.975C230.159 105.887 232.499 107.25 241.127 109.485M241.161 109.485C252.793 112.489 258.452 116.366 258.452 125.623C258.452 136.591 250.802 142.11 237.843 142.11C230.403 142.11 223.871 140.608 218.457 137.464V123.771H230.543V128.243C230.543 132.05 233.966 133.552 237.529 133.552C242.838 133.552 245.842 130.583 245.842 126.461C245.842 122.339 244.061 120.313 235.084 118.183" fill="white"/>
<path d="M78.3162 225.827H83.6956C85.0579 226.875 82.5079 230.508 82.5079 227.608V175.493C82.5079 173.013 84.5688 174.619 83.6956 175.493H78.3162V166.516H100.322V175.493H95.7116C94.5239 174.34 96.6545 171.825 96.6545 174.515V224.535H117.124C118.276 225.478 114.19 228.691 114.19 226.211V210.772H126.834V235.817H78.2812V225.862L78.3162 225.827Z" fill="white"/>
<path d="M229.355 235.747L222.264 208.047C221.81 206.371 221.391 204.38 221.042 202.494C220.588 204.38 220.169 206.371 219.715 208.152L212.624 235.747H200.643L188.522 189.011C187.963 187.054 191.316 188.941 190.967 189.849H184.505V181.431H204.625V189.849H200.014C200.014 189.849 201.167 188.032 201.376 189.36L207.175 211.68C207.524 213.357 208.048 216.012 208.397 217.898C208.711 215.802 209.27 213.252 209.724 211.575L217.479 181.431H226.666L234.63 212.344C235.188 214.021 235.503 215.907 235.957 217.898C236.167 216.221 236.725 213.462 237.075 212.134L242.803 189.569C242.908 188.801 244.131 189.884 244.131 189.884H239.52V181.466H257.649V189.884H251.186C250.732 189.045 254.225 187.264 253.632 189.325L241.406 235.747H229.32H229.355Z" fill="white"/>
<path d="M65.1482 219.575H48.9755V235.748H65.1482V219.575Z" fill="#41A5FC"/>
</svg>
