<svg width="225" height="35" viewBox="0 0 225 35" fill="none" xmlns="http://www.w3.org/2000/svg">
<path d="M0 29.986H2.36056C2.82241 30.3948 1.75505 31.4714 1.75505 30.4446V3.82819C1.75505 2.46248 2.92504 3.82819 2.36056 4.46619H0V0.0101814H14.0095C22.1791 0.0101814 26.0894 3.53909 26.0894 12.6206V22.0609C26.0894 30.6539 22.2304 34.452 14.0711 34.452H0.0102734V29.986H0ZM12.5931 29.2085C17.5811 29.2085 18.8333 26.6764 18.8333 21.722V12.1221C18.8333 7.43685 17.1295 5.18394 12.7676 5.18394H9.02152V29.2185H12.5931V29.2085Z" fill="white"/>
<path d="M52.2402 30.2654V16.6681C52.2402 10.4476 49.6846 7.75611 42.5824 7.75611C38.1691 7.75611 35.2749 8.5237 31.9804 10.009V16.7279H38.1076V14.9535C38.1076 12.9199 39.0723 12.0327 42.1308 12.0327C45.1893 12.0327 45.8154 13.6775 45.8154 16.8077L38.8979 19.1703C34.0844 20.7653 30.7488 22.9185 30.7488 27.6636C30.7488 32.4087 33.2325 34.9906 38.3436 34.9906C41.2892 34.9906 43.8345 33.6747 46.0514 31.8504V34.4423H53.831V30.2554H52.2402V30.2654ZM45.8154 27.3446C44.6351 28.5608 42.7055 29.9863 40.5913 29.9863C38.7336 29.9863 37.3686 28.9396 37.3686 27.1253C37.3686 24.9222 39.0621 23.9353 43.0853 22.3901L45.8051 21.4032V27.3546L45.8154 27.3446Z" fill="white"/>
<path d="M184.224 30.2649V16.6676C184.224 10.4471 181.688 7.74558 174.586 7.74558C170.173 7.74558 167.279 8.52315 163.984 9.99851V16.7174H170.111V14.9629C170.111 12.9293 171.076 12.0421 174.135 12.0421C177.193 12.0421 177.819 13.6869 177.819 16.8171L170.902 19.1797C166.078 20.7747 162.732 22.9279 162.732 27.673C162.732 32.4181 165.236 35 170.327 35C173.273 35 175.828 33.6642 178.045 31.8599V34.4517H185.804V30.2649H184.213H184.224ZM177.819 27.354C176.618 28.5502 174.709 29.9957 172.595 29.9957C170.717 29.9957 169.362 28.949 169.362 27.1347C169.362 24.9316 171.076 23.9447 175.099 22.3896L177.819 21.4027V27.354Z" fill="white"/>
<path d="M80.4234 30.265V0H71.3609V4.18685H74.0088V9.61978C71.9356 8.66279 71.0017 8.31389 68.1587 8.31389C62.206 8.31389 57.8954 12.1518 57.8954 19.3193V23.0676C57.8954 29.9759 60.8409 34.8206 67.0297 34.8206C69.5853 34.8206 71.8022 34.0032 74.1833 32.3384V34.4418H82.0655V30.255H80.4234V30.265ZM74.0088 28.1616C72.5411 29.3777 71.0632 29.9858 69.3595 29.9858C66.5371 29.9858 64.4229 27.8824 64.4229 21.8414V20.8545C64.4229 16.1991 65.6032 13.1587 70.0882 13.1587C71.443 13.1587 72.7157 13.3979 73.9986 14.0758V28.1616H74.0088Z" fill="white"/>
<path d="M95.2438 23.0575C89.6297 21.6619 86.4584 19.8975 86.4584 15.5611C86.4584 10.4272 90.143 7.7456 96.7218 7.7456C100.293 7.7456 104.039 8.49326 106.533 9.72938V16.0994H100.406V14.5044C100.406 12.8795 99.2158 11.9823 96.7218 11.9823C94.002 11.9823 92.7498 13.2483 92.7498 14.9829C92.7498 16.9268 93.9404 17.6146 98.3639 18.7211M98.3536 18.7211C104.306 20.2164 107.201 22.1504 107.201 26.7459C107.201 32.2088 103.29 34.9402 96.6499 34.9402C92.8524 34.9402 89.5066 34.1926 86.7252 32.6374V25.8388H92.9038V28.0618C92.9038 29.9559 94.6589 30.6935 96.4755 30.6935C99.1953 30.6935 100.724 29.2182 100.724 27.1646C100.724 25.1111 99.8212 24.1042 95.2232 23.0575" fill="white"/>
<path d="M133.522 29.4974H136.263C136.961 30.0257 135.657 31.8201 135.657 30.3746V4.46597C135.657 3.22985 136.704 4.03731 136.263 4.45599H133.522V0H144.792V4.45599H142.431C141.836 3.87781 142.924 2.6417 142.924 3.96754V28.8394H153.403C153.988 29.298 151.914 30.9129 151.914 29.6768V22.0009H158.38V34.4418H133.533V29.4974H133.522Z" fill="white"/>
<path d="M195.791 34.432H201.907L205.541 20.735C205.777 19.8478 206.003 18.8609 206.239 17.9239C206.403 18.8609 206.629 19.8478 206.844 20.6653L210.477 34.432H216.666L222.855 11.6336H225V7.44676H215.701V11.6336H217.344L214.449 22.7088C214.285 23.3668 213.998 24.7425 213.895 25.5699C213.659 24.583 213.505 23.6459 213.218 22.8085L209.123 7.44676H204.422L200.45 22.4297C200.214 23.2671 199.927 24.5132 199.773 25.5699C199.598 24.6328 199.321 23.3169 199.147 22.4796L196.252 11.6236H197.843V7.43679H187.549V11.6236H189.715L195.811 34.4221L195.791 34.432Z" fill="white"/>
<path d="M126.759 22.0147H113.964V34.4417H126.759V22.0147Z" fill="#5AB2FF"/>
</svg>
