<svg width="17" height="20" viewBox="0 0 17 20" fill="none" xmlns="http://www.w3.org/2000/svg">
<path d="M16 8.33301C16 14.1663 8.5 19.1663 8.5 19.1663C8.5 19.1663 1 14.1663 1 8.33301C1 6.34388 1.79018 4.43623 3.1967 3.02971C4.60322 1.62318 6.51088 0.833008 8.5 0.833008C10.4891 0.833008 12.3968 1.62318 13.8033 3.02971C15.2098 4.43623 16 6.34388 16 8.33301Z" stroke="#41A5FC" stroke-width="2" stroke-linecap="round" stroke-linejoin="round"/>
<path d="M8.5 10.833C9.88071 10.833 11 9.71372 11 8.33301C11 6.9523 9.88071 5.83301 8.5 5.83301C7.11929 5.83301 6 6.9523 6 8.33301C6 9.71372 7.11929 10.833 8.5 10.833Z" stroke="#41A5FC" stroke-width="2" stroke-linecap="round" stroke-linejoin="round"/>
</svg>
