<svg width="20" height="20" viewBox="0 0 20 20" fill="none" xmlns="http://www.w3.org/2000/svg">
<g clip-path="url(#clip0_2123_1109)">
<path d="M5.92494 0.666992V0.667969C6.5684 0.663993 7.19172 0.891904 7.67982 1.31152C8.10905 1.68066 8.40849 2.1756 8.53725 2.72266L8.58217 2.96094L8.58315 2.96973C8.67868 3.694 8.85529 4.40532 9.11049 5.08984C9.28988 5.56708 9.32914 6.08634 9.22279 6.58496C9.11643 7.08347 8.86929 7.54087 8.51088 7.90332L8.50697 7.90723L8.00502 8.4082C8.93896 9.83922 10.1601 11.06 11.591 11.9941L12.0929 11.4932L12.0968 11.4893C12.4593 11.1308 12.9175 10.8837 13.4162 10.7773C13.9137 10.6713 14.431 10.7102 14.9074 10.8887H14.9083C15.5935 11.1443 16.3054 11.3213 17.0304 11.417L17.0402 11.4189C17.6875 11.5104 18.2786 11.8362 18.7013 12.335C19.1188 12.8278 19.3432 13.4553 19.3331 14.1006V16.5967L19.3204 16.874C19.2927 17.1499 19.222 17.4207 19.1105 17.6758C18.9618 18.0159 18.7434 18.3213 18.4699 18.5723C18.1962 18.8233 17.8724 19.0138 17.5206 19.1328C17.169 19.2517 16.7966 19.2961 16.4269 19.2627C16.4209 19.2622 16.4143 19.2614 16.4083 19.2607C13.6887 18.9652 11.0757 18.0363 8.78041 16.5479V16.5469C6.64675 15.1893 4.83698 13.3796 3.48061 11.2451V11.2441C1.98996 8.94029 1.06238 6.31766 0.772598 3.58887C0.77208 3.58397 0.771091 3.57912 0.770645 3.57422C0.737326 3.20551 0.781384 2.83327 0.899551 2.48242C1.01771 2.13168 1.20766 1.80949 1.45717 1.53613C1.70668 1.2628 2.01025 1.04411 2.34877 0.894531C2.68739 0.744961 3.05378 0.667354 3.42397 0.666992H5.92494Z" stroke="#41A5FC" stroke-width="2" stroke-linecap="round" stroke-linejoin="round"/>
</g>
<defs>
<clipPath id="clip0_2123_1109">
<rect width="20" height="20" fill="white"/>
</clipPath>
</defs>
</svg>
